<svg viewBox="0 0 64 64" xmlns="http://www.w3.org/2000/svg" role="img" aria-label="Bropicer — біла кришка">
  <!-- void background -->
  <rect width="64" height="64" rx="13" fill="#060606"/>
  <!-- fluted crown cap (paper white) -->
  <path d="M 32.00 3.00 L 35.80 6.78 L 40.55 4.29 L 43.06 9.03 L 48.34 8.04 L 49.34 13.31 L 54.67 13.92 L 54.08 19.25 L 59.00 21.41 L 56.86 26.33 L 60.92 29.83 L 57.43 33.91 L 60.27 38.45 L 55.74 41.32 L 57.11 46.50 L 51.94 47.90 L 51.73 53.26 L 46.36 53.07 L 44.58 58.13 L 39.52 56.37 L 36.32 60.68 L 32.00 57.50 L 27.68 60.68 L 24.48 56.37 L 19.42 58.13 L 17.64 53.07 L 12.27 53.26 L 12.06 47.90 L 6.89 46.50 L 8.26 41.32 L 3.73 38.45 L 6.57 33.91 L 3.08 29.83 L 7.14 26.33 L 5.00 21.41 L 9.92 19.25 L 9.33 13.92 L 14.66 13.31 L 15.66 8.04 L 20.94 9.03 L 23.45 4.29 L 28.20 6.78 Z"
        fill="#F3F2EE" stroke="#F3F2EE" stroke-width="1.4" stroke-linejoin="round"/>
  <!-- pressed top ring -->
  <circle cx="32" cy="32" r="18.5" fill="none" stroke="#060606" stroke-width="1.6" stroke-opacity="0.10"/>
  <!-- amber signal center -->
  <circle cx="32" cy="32" r="3.4" fill="#C6923E"/>
</svg>
